<svg xmlns="http://www.w3.org/2000/svg" width="128.958" height="126.808" viewBox="0 0 128.958 126.808">
  <g id="Сгруппировать_64" data-name="Сгруппировать 64" transform="translate(-1335 -2596)">
    <path id="Контур_41" data-name="Контур 41" d="M43.207,87.49a2.267,2.267,0,0,0,1.771.8c1.052-.047,1.629-.856,2.223-1.6q.793-.989,1.584-1.98Q50.842,82.14,52.9,79.57l2.257-2.822A2.149,2.149,0,0,0,51.8,74.064l-4.77,5.962v-.32a32.276,32.276,0,0,1,32.24-32.24,2.149,2.149,0,1,0,0-4.3A36.579,36.579,0,0,0,42.728,79.706v.322l-4.769-5.961A2.148,2.148,0,1,0,34.6,76.75l2.007,2.508q1.947,2.435,3.894,4.868c.869,1.086,1.707,2.2,2.607,3.259C43.145,87.422,43.175,87.456,43.207,87.49Zm0,0" transform="translate(1309.464 2563.579)" fill="#fff"/>
    <path id="Контур_42" data-name="Контур 42" d="M328.327,274.462a2.237,2.237,0,0,0-1.737-.8c-1.326.045-2.087,1.386-2.836,2.322q-1.293,1.618-2.59,3.236-2.292,2.87-4.589,5.737l-.187.232a2.148,2.148,0,1,0,3.355,2.684l4.769-5.961v.322a32.276,32.276,0,0,1-32.24,32.24,2.149,2.149,0,0,0,0,4.3,36.58,36.58,0,0,0,36.539-36.538v-.322l4.769,5.961a2.149,2.149,0,0,0,3.357-2.684l-3.508-4.385q-2.363-2.956-4.728-5.91C328.583,274.745,328.458,274.6,328.327,274.462Zm0,0" transform="translate(1117.949 2391.139)" fill="#fff"/>
    <path id="Контур_43" data-name="Контур 43" d="M318.329,13.4h-2.149v-.909a12.009,12.009,0,0,0-4.64-9.571A11.886,11.886,0,0,0,304.2.5c-5.821,0-9.236,2.39-11.077,4.359-.2-.017-.388-.06-.589-.06h-8.6c-.2,0-.394.041-.589.06C281.51,2.89,278.095.5,272.274.5a11.88,11.88,0,0,0-7.336,2.418,12,12,0,0,0-4.64,9.57V13.4H258.15a2.151,2.151,0,0,0-2.15,2.15v8.6a2.15,2.15,0,0,0,2.15,2.149H260.3V54.232a2.151,2.151,0,0,0,2.15,2.15h17.194V26.291h4.3V56.382h8.6V26.291h4.3V56.382h17.194a2.151,2.151,0,0,0,2.15-2.15V26.291h2.149a2.15,2.15,0,0,0,2.15-2.149v-8.6A2.151,2.151,0,0,0,318.329,13.4Zm-34.386-.022a2.225,2.225,0,0,1-1.951-1.276,2.182,2.182,0,0,1,.256-2.15c.7-.92,1.809-.851,2.845-.851h6.777a2.564,2.564,0,0,1,2.549,1.15,2.19,2.19,0,0,1-.114,2.192c-.905,1.346-2.934.958-4.316.961-1.88,0-3.763.006-5.646,0A3.819,3.819,0,0,1,283.943,13.374Zm32.238,8.619H260.3v-4.3h55.882Zm0,0" transform="translate(1143.479 2595.5)" fill="#fff"/>
    <path id="Контур_44" data-name="Контур 44" d="M138.684,384.5h-2.149v8.6h2.149a4.3,4.3,0,0,0,0-8.6Zm0,0" transform="translate(1232.854 2308.219)" fill="#fff"/>
    <path id="Контур_45" data-name="Контур 45" d="M93.867,337.6a4.3,4.3,0,0,0,4.3,4.3h2.149v-8.6H98.166A4.3,4.3,0,0,0,93.867,337.6Zm0,0" transform="translate(1264.775 2346.522)" fill="#fff"/>
    <path id="Контур_46" data-name="Контур 46" d="M32.24,247.965a32.24,32.24,0,1,0,32.24,32.24A32.276,32.276,0,0,0,32.24,247.965Zm4.3,47.285H34.389v2.15a2.15,2.15,0,0,1-4.3,0v-2.15H23.642a2.149,2.149,0,1,1,0-4.3H30.09v-8.6H27.941a8.6,8.6,0,1,1,0-17.194H30.09v-2.15a2.15,2.15,0,0,1,4.3,0v2.15h6.447a2.149,2.149,0,1,1,0,4.3H34.389v8.6h2.149a8.606,8.606,0,0,1,8.6,8.6,8.728,8.728,0,0,1-2.665,6.217A8.407,8.407,0,0,1,36.538,295.25Zm0,0" transform="translate(1335 2410.365)" fill="#fff"/>
  </g>
</svg>
