<svg xmlns="http://www.w3.org/2000/svg" width="178.237" height="135.143" viewBox="0 0 178.237 135.143">
  <g id="Сгруппировать_63" data-name="Сгруппировать 63" transform="translate(-870.644 -3060.313)">
    <path id="Контур_52" data-name="Контур 52" d="M136,268.19v7.619a7.628,7.628,0,0,1-7.619,7.619H71.238a7.628,7.628,0,0,1-7.619-7.619V268.19a7.628,7.628,0,0,1,7.619-7.619h57.143A7.628,7.628,0,0,1,136,268.19Zm0-30.476v7.619a7.628,7.628,0,0,1-7.619,7.619H71.238a7.628,7.628,0,0,1-7.619-7.619v-7.619a7.628,7.628,0,0,1,7.619-7.619h57.143A7.628,7.628,0,0,1,136,237.714ZM71.238,222.476a7.628,7.628,0,0,1-7.619-7.619v-7.619a7.628,7.628,0,0,1,7.619-7.619h57.143A7.628,7.628,0,0,1,136,207.238v7.619a7.628,7.628,0,0,1-7.619,7.619H71.238Z" transform="translate(808.525 2862.194)" fill="#fff" stroke="#fff" stroke-width="3"/>
    <circle id="Эллипс_21" data-name="Эллипс 21" cx="3.81" cy="3.81" r="3.81" transform="translate(875.953 3130.384)" fill="#681b43" stroke="#681b43" stroke-width="1"/>
    <circle id="Эллипс_22" data-name="Эллипс 22" cx="3.81" cy="3.81" r="3.81" transform="translate(887.382 3130.384)" fill="#681b43" stroke="#681b43" stroke-width="1"/>
    <circle id="Эллипс_23" data-name="Эллипс 23" cx="3.81" cy="3.81" r="3.81" transform="translate(898.81 3130.384)" fill="#681b43" stroke="#681b43" stroke-width="1"/>
    <rect id="Прямоугольник_44" data-name="Прямоугольник 44" width="22.857" height="7.619" transform="translate(914.048 3130.384)" fill="#681b43" stroke="#681b43" stroke-width="1"/>
    <circle id="Эллипс_24" data-name="Эллипс 24" cx="3.81" cy="3.81" r="3.81" transform="translate(875.953 3099.908)" fill="#681b43" stroke="#681b43" stroke-width="1"/>
    <circle id="Эллипс_25" data-name="Эллипс 25" cx="3.81" cy="3.81" r="3.81" transform="translate(887.382 3099.908)" fill="#681b43" stroke="#681b43" stroke-width="1"/>
    <circle id="Эллипс_26" data-name="Эллипс 26" cx="3.81" cy="3.81" r="3.81" transform="translate(898.81 3099.908)" fill="#681b43" stroke="#681b43" stroke-width="1"/>
    <rect id="Прямоугольник_45" data-name="Прямоугольник 45" width="22.857" height="7.619" transform="translate(914.048 3099.908)" fill="#681b43" stroke="#681b43" stroke-width="1"/>
    <circle id="Эллипс_27" data-name="Эллипс 27" cx="3.81" cy="3.81" r="3.81" transform="translate(875.953 3069.432)" fill="#681b43" stroke="#681b43" stroke-width="1"/>
    <circle id="Эллипс_28" data-name="Эллипс 28" cx="3.81" cy="3.81" r="3.81" transform="translate(887.382 3069.432)" fill="#681b43" stroke="#681b43" stroke-width="1"/>
    <circle id="Эллипс_29" data-name="Эллипс 29" cx="3.81" cy="3.81" r="3.81" transform="translate(898.81 3069.432)" fill="#681b43" stroke="#681b43" stroke-width="1"/>
    <rect id="Прямоугольник_46" data-name="Прямоугольник 46" width="22.857" height="7.619" transform="translate(914.048 3069.432)" fill="#681b43" stroke="#681b43" stroke-width="1"/>
    <path id="Контур_53" data-name="Контур 53" d="M381.333,247.238v2.05a15.139,15.139,0,0,0-7.619-2.05h-8.175a7.577,7.577,0,0,1-6.814-4.211l-1.3-2.6c-.137-.275-.286-.541-.437-.8h16.728A7.628,7.628,0,0,1,381.333,247.238Zm0,22.857a7.628,7.628,0,0,1-7.619,7.619H343.238a7.628,7.628,0,0,1-7.619-7.619V247.238a7.628,7.628,0,0,1,7.619-7.619h.556a7.577,7.577,0,0,1,6.815,4.211l1.3,2.6a15.155,15.155,0,0,0,13.629,8.423h8.175a7.628,7.628,0,0,1,7.619,7.619Z" transform="translate(666.048 2841.241)" fill="#fff" stroke="#fff" stroke-width="3"/>
    <path id="Контур_56" data-name="Контур 56" d="M381.333,247.238v2.05a15.139,15.139,0,0,0-7.619-2.05h-8.175a7.577,7.577,0,0,1-6.814-4.211l-1.3-2.6c-.137-.275-.286-.541-.437-.8h16.728A7.628,7.628,0,0,1,381.333,247.238Zm0,22.857a7.628,7.628,0,0,1-7.619,7.619H343.238a7.628,7.628,0,0,1-7.619-7.619V247.238a7.628,7.628,0,0,1,7.619-7.619h.556a7.577,7.577,0,0,1,6.815,4.211l1.3,2.6a15.155,15.155,0,0,0,13.629,8.423h8.175a7.628,7.628,0,0,1,7.619,7.619Z" transform="translate(666.048 2916.241)" fill="#fff" stroke="#fff" stroke-width="3"/>
    <path id="Контур_55" data-name="Контур 55" d="M248,280v7.619h11.429V360a3.81,3.81,0,0,0,3.809,3.81h15.238V356.19H267.048V287.619h11.429V280Z" transform="translate(707.953 2816.099)" fill="none" stroke="#fff" stroke-width="2"/>
  </g>
</svg>
