<svg xmlns="http://www.w3.org/2000/svg" width="248.485" height="110.683" viewBox="0 0 248.485 110.683">
  <g id="Сгруппировать_3" data-name="Сгруппировать 3" transform="translate(-46.666 -39.44)">
    <g id="Сгруппировать_1" data-name="Сгруппировать 1" transform="translate(46.666 39.44)">
      <path id="Контур_1" data-name="Контур 1" d="M295.151,69.646H120.66a13.773,13.773,0,0,0-14.835-6.433,11.3,11.3,0,0,0-18.948-4.5,11.37,11.37,0,0,0-2.613-2.437c.467-11.482,7.085-15.008,7.085-15.008s-2.221-1.7-1.984-1.826a21.917,21.917,0,0,0-6.822,15.885A11.3,11.3,0,0,0,69.328,72.935c-.184.166-.36.341-.531.52A11.3,11.3,0,1,0,56.773,87.9a11.3,11.3,0,0,0,5.4,13.633,11.3,11.3,0,0,0,4.936,17.771,9.1,9.1,0,0,0,10.681,7.775,8.186,8.186,0,0,0,5.05,10.43A8.941,8.941,0,1,0,97.1,134.659a8.186,8.186,0,0,0,2.809-9.028,8.192,8.192,0,0,0,9.862-7.535H295.151Z" transform="translate(-46.666 -39.44)" fill="#681b43"/>
      <path id="Контур_2" data-name="Контур 2" d="M124.073,145.235s-9.9,5.933-1.248,15.673c0,.083-4.778-9.159,1.248-15.673" transform="translate(-81.027 -89.505)" fill="#fff"/>
      <path id="Контур_3" data-name="Контур 3" d="M148.279,88.381S134.5,96.648,146.556,110.2c0,.115-6.661-12.746,1.723-21.818" transform="translate(-91.596 -62.6)" fill="#fff"/>
      <path id="Контур_4" data-name="Контур 4" d="M125.9,73.228s-11.3,6.78-1.413,17.889c0,.094-5.461-10.451,1.413-17.889" transform="translate(-81.573 -55.429)" fill="#fff"/>
      <path id="Контур_5" data-name="Контур 5" d="M73.581,120.719s-11.3,6.78-1.412,17.89c0,.094-5.461-10.452,1.412-17.89" transform="translate(-56.816 -77.904)" fill="#fff"/>
      <path id="Контур_6" data-name="Контур 6" d="M133.235,153.887s-11.3,6.779-1.413,17.889c0,.094-5.462-10.451,1.413-17.889" transform="translate(-85.045 -93.6)" fill="#fff"/>
      <path id="Контур_7" data-name="Контур 7" d="M80.158,153.219s-11.3,6.78-1.413,17.889c0,.094-5.46-10.451,1.413-17.889" transform="translate(-59.928 -93.283)" fill="#fff"/>
      <path id="Контур_8" data-name="Контур 8" d="M94.106,71.876s-11.531,6.919-1.441,18.258c0,.1-5.573-10.667,1.441-18.258" transform="translate(-66.475 -54.79)" fill="#fff"/>
      <path id="Контур_9" data-name="Контур 9" d="M117.045,105.555s-11.865,7.119-1.483,18.786c0,.1-5.734-10.975,1.483-18.786" transform="translate(-77.254 -70.727)" fill="#fff"/>
      <path id="Контур_10" data-name="Контур 10" d="M114.408,178.082s-9.451,5.67-1.182,14.964c0,.078-4.569-8.742,1.182-14.964" transform="translate(-76.559 -105.049)" fill="#fff"/>
      <path id="Контур_11" data-name="Контур 11" d="M101.758,134.039s-9.952,5.97-1.244,15.755c0,.083-4.81-9.2,1.244-15.755" transform="translate(-70.458 -84.207)" fill="#fff"/>
      <path id="Контур_12" data-name="Контур 12" d="M107.019,150.9s-9.108,5.457-1.147,14.415c0,.076-4.4-8.424,1.147-14.415" transform="translate(-73.14 -92.185)" fill="#fff"/>
      <path id="Контур_13" data-name="Контур 13" d="M91.814,174.458s-9.109,5.456-1.148,14.414c0,.077-4.395-8.423,1.148-14.414" transform="translate(-65.944 -103.334)" fill="#fff"/>
      <path id="Контур_14" data-name="Контур 14" d="M110.72,198.009s-8.192,4.908-1.032,12.965c0,.068-3.953-7.578,1.032-12.965" transform="translate(-75.101 -114.479)" fill="#fff"/>
      <path id="Контур_15" data-name="Контур 15" d="M123.247,194.946s-8.192,4.908-1.032,12.965c0,.068-3.953-7.577,1.032-12.965" transform="translate(-81.029 -113.03)" fill="#fff"/>
      <path id="Контур_16" data-name="Контур 16" d="M120.209,218.483s-8.944,5.358-1.126,14.155c0,.074-4.317-8.273,1.126-14.155" transform="translate(-79.419 -124.168)" fill="#fff"/>
      <path id="Контур_17" data-name="Контур 17" d="M325.366,226.787a3.015,3.015,0,0,0,6.03,0V216.7a3.015,3.015,0,0,0-6.03,0Zm1.206-10.088a1.809,1.809,0,0,1,3.618,0v10.088a1.809,1.809,0,1,1-3.618,0Zm-9.809,12.872h1.206V217.046h.046l3.943,12.524h1.206V213.916h-1.206V225.79h-.046l-3.687-11.874h-1.461Zm-2.319-15.654h-1.206V229.57h1.206Zm-6.053,14.308h-.046l-2.18-14.308H304.96l2.388,15.654h2.04l2.39-15.654h-1.207ZM298,228.364V213.916H296.8V229.57h4.986v-1.207Zm-3.525-14.447h-1.206V229.57h1.206Zm-6.1,1.206v-1.206h-5.01V229.57h5.194v-1.207h-3.989v-6.006h2.807v-1.229h-2.807v-6.006Zm-6.958,3.9V216.7a3.015,3.015,0,1,0-6.029,0v10.088a3.015,3.015,0,1,0,6.029,0v-2.133h-1.206v2.133a1.809,1.809,0,1,1-3.618,0V216.7a1.809,1.809,0,0,1,3.618,0v2.459Zm-9.507,5.056a2.112,2.112,0,0,1,.44,1.205v1.508a1.809,1.809,0,1,1-3.618,0v-2.435l-1.206.139v2.3a3.015,3.015,0,1,0,6.029,0v-1.508a3.426,3.426,0,0,0-.719-1.994l-3.687-4.383a1.952,1.952,0,0,1-.417-1.16V216.7a1.809,1.809,0,1,1,3.618,0v2.087l1.205-.139V216.7a3.015,3.015,0,0,0-6.029,0v1.044a3.352,3.352,0,0,0,.7,1.948Zm-8.837-8.813h.047l1.367,9.091h-2.806Zm1.044-1.345H262.08l-2.388,15.654H260.9l.6-4.013h3.177l.626,4.013h1.206ZM251.83,229.57h1.206V217.046h.046l3.943,12.524h1.206V213.916h-1.206V225.79h-.047l-3.687-11.874H251.83Zm-4.893-14.448v-1.206h-5.01V229.57h5.194v-1.207h-3.989v-6.006h2.806v-1.229h-2.806v-6.006Zm-9.856,13.1h-.047l-2.18-14.308h-1.207l2.389,15.654h2.041l2.388-15.654h-1.206Zm-10.807-1.438a3.015,3.015,0,1,0,6.03,0V216.7a3.015,3.015,0,0,0-6.03,0Zm1.205-10.088a1.809,1.809,0,0,1,3.618,0v10.088a1.809,1.809,0,1,1-3.618,0Zm-3.246.464a3.256,3.256,0,0,0-3.246-3.246H218.2V229.57h2.783a3.257,3.257,0,0,0,3.246-3.247Zm-1.206,9.161a2.029,2.029,0,0,1-2.041,2.04H219.41V215.122h1.577a2.029,2.029,0,0,1,2.041,2.041Zm-10.2-12.407h-1.206V229.57h1.206Zm-4.73,0v7.212h-3.618v-7.212h-1.206V229.57h1.206v-7.236h3.618v7.236H209.3V213.916Zm-9.925,8.836h1.809v4.035a1.809,1.809,0,1,1-3.618,0V216.7a1.809,1.809,0,1,1,3.618,0v1.995l1.206-.139V216.7a3.015,3.015,0,1,0-6.029,0v10.088a3.024,3.024,0,0,0,5.01,2.272v.534l1.02.209v-8.256h-3.015Zm-11.131,4.035a3.015,3.015,0,1,0,6.029,0V216.7a3.015,3.015,0,0,0-6.029,0Zm1.205-10.088a1.809,1.809,0,0,1,3.618,0v10.088a1.809,1.809,0,1,1-3.618,0Zm-4.568-2.782v12.871a1.809,1.809,0,1,1-3.618,0V213.916H178.85v12.871a3.015,3.015,0,1,0,6.029,0V213.916Zm-10.064,14.447V213.916H172.4V229.57h4.986v-1.207Zm-6.586-14.447h-1.206V229.57h1.206Z" transform="translate(-103.052 -121.897)" fill="#fff"/>
      <path id="Контур_18" data-name="Контур 18" d="M54.542,110.018c0,.1-5.574-10.667,1.441-18.258,0,0-11.531,6.919-1.441,18.258" transform="translate(-48.435 -64.199)" fill="#fff"/>
    </g>
    <g id="Сгруппировать_2" data-name="Сгруппировать 2" transform="translate(105.162 78.087)">
      <path id="Контур_19" data-name="Контур 19" d="M262.367,126.963a1.469,1.469,0,0,0-.863.137,1.3,1.3,0,0,0-.656.829,13.344,13.344,0,0,1-.621,1.553q-.484,1.071-1.174,2.347t-1.588,2.658A17.6,17.6,0,0,1,255.6,136.9a8.5,8.5,0,0,1-2,1.622,2.4,2.4,0,0,1-1.933.311,1.751,1.751,0,0,1-1.07-.967,6.339,6.339,0,0,1-.553-1.864,13.837,13.837,0,0,1-.138-2.485,24.134,24.134,0,0,1,.242-2.83q.759-.068,1.76-.207a11.6,11.6,0,0,0,1.967-.449,9,9,0,0,0,1.795-.794A4.459,4.459,0,0,0,257.051,128a3.586,3.586,0,0,0,.587-2.485,8.875,8.875,0,0,0-.794-3.107,7.947,7.947,0,0,0-1.967-2.658,4.281,4.281,0,0,0-2.934-1.139,4.051,4.051,0,0,0-3.141,1.726,14.409,14.409,0,0,0-2.347,4.349,23.231,23.231,0,0,0-.895,3.344,15.63,15.63,0,0,1-.83,2.006,21.8,21.8,0,0,1-1.277,2.278,14.081,14.081,0,0,1-1.381,1.829q-.691.76-1.1.759-.346,0-.483-1a17.3,17.3,0,0,1-.138-2.347,20.2,20.2,0,0,1,.173-2.658,11.2,11.2,0,0,1,.379-1.933,1.139,1.139,0,0,0-.207-1.381,2.268,2.268,0,0,0-1.45-.518,4.609,4.609,0,0,0-1.864.345,3.559,3.559,0,0,0-1.519,1.07,16.561,16.561,0,0,0-1.484,2.52,21.651,21.651,0,0,0-1.277,3.348,9.272,9.272,0,0,1,.034-1.76q.1-1.069.311-2.278t.449-2.416q.241-1.207.379-2.175a1.423,1.423,0,0,0-.621-1.519,2.842,2.842,0,0,0-1.76-.414,3.832,3.832,0,0,0-1.968.759,2.95,2.95,0,0,0-1.173,2.071,15.858,15.858,0,0,0-.276,3.106c0,.066,0,.135,0,.2l0,.005a17.946,17.946,0,0,1-.621,2.209q-.484,1.45-1.036,2.9a20.49,20.49,0,0,1-1.139,2.52q-.587,1.071-1,1.07-.621,0-.794-1.243a16.981,16.981,0,0,1-.1-2.968q.068-1.724.311-3.589t.518-3.106a1.975,1.975,0,0,0-.552-1.864,3.059,3.059,0,0,0-1.795-.9,2.564,2.564,0,0,0-1.9.483,2.631,2.631,0,0,0-.863,2.278q0,1.117-.045,2.26c-.149.391-.409,1.051-.783,1.985q-.621,1.553-1.38,3.175t-1.484,2.865q-.725,1.242-1.139,1.242-.484,0-.622-1.76a43.43,43.43,0,0,1-.069-4.418q.068-2.657.276-5.661t.483-5.488h2.071a3.084,3.084,0,0,0,1.726-.414,2.022,2.022,0,0,0,.195-.153,3.4,3.4,0,0,0,.978.5,7.668,7.668,0,0,0,3.382.345,7.321,7.321,0,0,0,1.726-.484,5.608,5.608,0,0,0,1.45-.863,3.451,3.451,0,0,0,.932-1.173,2.283,2.283,0,0,0,.172-1.415,2.637,2.637,0,0,0-1.795-2.106,7.163,7.163,0,0,0-6.8,1.1,2.653,2.653,0,0,0-.977,2.01,4.985,4.985,0,0,0-1.128-.112h-1.657l.345-1.8a1.788,1.788,0,0,0-.587-1.795,3.034,3.034,0,0,0-1.829-.759,2.876,2.876,0,0,0-1.933.587,2.681,2.681,0,0,0-.9,2.313c0,.231-.012.5-.035.794s-.035.611-.035.932h-1.864a3.035,3.035,0,0,0-1.795.414,1.049,1.049,0,0,0-.518.9,1.257,1.257,0,0,0,.621.9,2.919,2.919,0,0,0,1.691.415h1.657q-.139,2-.345,4.383c-.1,1.187-.172,2.365-.224,3.539a15.466,15.466,0,0,1-.845,2.053,21.9,21.9,0,0,1-1.277,2.278,14.081,14.081,0,0,1-1.381,1.829q-.691.76-1.1.759-.347,0-.484-1a17.3,17.3,0,0,1-.138-2.347,20.385,20.385,0,0,1,.172-2.658,11.293,11.293,0,0,1,.38-1.933,1.138,1.138,0,0,0-.207-1.381,2.269,2.269,0,0,0-1.45-.518,4.611,4.611,0,0,0-1.864.345,3.559,3.559,0,0,0-1.519,1.07,16.564,16.564,0,0,0-1.484,2.52,21.652,21.652,0,0,0-1.277,3.348,9.279,9.279,0,0,1,.035-1.76q.1-1.069.31-2.278t.449-2.416q.241-1.207.38-2.175a1.423,1.423,0,0,0-.622-1.519,2.841,2.841,0,0,0-1.76-.414,3.829,3.829,0,0,0-1.967.759,2.948,2.948,0,0,0-1.174,2.071,15.9,15.9,0,0,0-.276,3.106c0,.066,0,.136,0,.2l0,0a17.85,17.85,0,0,1-.621,2.209q-.484,1.45-1.07,2.9a24.214,24.214,0,0,1-1.173,2.52q-.587,1.071-1,1.07-.553,0-.725-1.243a16.937,16.937,0,0,1-.1-2.968q.068-1.724.311-3.589t.517-3.106a2.006,2.006,0,0,0-.345-1.553,2.862,2.862,0,0,0-1.243-.966,3.4,3.4,0,0,0-1.588-.242,2.009,2.009,0,0,0-1.381.69,6.884,6.884,0,0,0-1.208-1.519,3.464,3.464,0,0,0-1.691-.9,5.457,5.457,0,0,0-4.35.793,8.971,8.971,0,0,0-2.865,3.487,14.372,14.372,0,0,0-.835,2.184,1.951,1.951,0,0,0-.1.232,26.181,26.181,0,0,1-2.83,5.73,12.365,12.365,0,0,1-2.52,2.8,3.216,3.216,0,0,1-3.072.655,1.976,1.976,0,0,1-1.346-1.38,8.067,8.067,0,0,1-.38-2.623,17.812,17.812,0,0,1,.31-3.21q.311-1.691.725-3.141a12.394,12.394,0,0,1,.932-2.416q.518-.966.932-1.036t.448.863a19.279,19.279,0,0,1-.068,2.209q-.1,1.278-.311,2.52t-.276,1.795q-.139.829.448,1.036a1.965,1.965,0,0,0,1.381-.1,3.877,3.877,0,0,0,1.518-1.174,4.02,4.02,0,0,0,.863-2.244,9.287,9.287,0,0,0-1-5.419,4.274,4.274,0,0,0-7.007-.863,12.085,12.085,0,0,0-2.313,3.624,18.151,18.151,0,0,0-1.277,4.694,13.476,13.476,0,0,0,.139,4.729,7.933,7.933,0,0,0,1.864,3.727,5.392,5.392,0,0,0,3.866,1.657,7.512,7.512,0,0,0,3.486-.656,9.994,9.994,0,0,0,2.761-1.9,13.7,13.7,0,0,0,2.105-2.623c.037-.06.071-.119.107-.179.031.268.056.536.1.8a12.34,12.34,0,0,0,1.588,4.487,5.286,5.286,0,0,0,3.175,2.485,4.574,4.574,0,0,0,2.554-.207,5.633,5.633,0,0,0,2.485-1.967,11.185,11.185,0,0,0,1.519-3,4.367,4.367,0,0,0,2.9,2.416,2.894,2.894,0,0,0,2.313-.277,6.6,6.6,0,0,0,1.933-1.76,13.107,13.107,0,0,0,1.519-2.623c.04-.092.074-.179.113-.27.033.966.031,1.809-.01,2.514a1.534,1.534,0,0,0,.69,1.519,3.084,3.084,0,0,0,1.691.483,3.442,3.442,0,0,0,1.726-.449,1.786,1.786,0,0,0,.932-1.346,14.79,14.79,0,0,1,.346-2.036q.275-1.207.621-2.313a16.331,16.331,0,0,1,.725-1.933q.379-.829.725-.967a4.988,4.988,0,0,1,.069,1.622,10.228,10.228,0,0,0,.207,2.623,5.559,5.559,0,0,0,1.139,2.416,3.469,3.469,0,0,0,2.865,1.07,3.565,3.565,0,0,0,2.416-1.208,16.233,16.233,0,0,0,2.278-2.8c.153-.235.3-.471.444-.707,0,.051,0,.1,0,.155a20.544,20.544,0,0,0,.518,3.9,6.966,6.966,0,0,0,1.243,2.727,2.617,2.617,0,0,0,2.14,1.035,4.613,4.613,0,0,0,3.451-1.519,14.621,14.621,0,0,0,2.485-3.589c.117-.235.227-.473.337-.71a7.957,7.957,0,0,0,.8,2.4,4.2,4.2,0,0,0,2.658,2.037,2.8,2.8,0,0,0,2.278-.277,6.791,6.791,0,0,0,1.9-1.76,13.108,13.108,0,0,0,1.519-2.623c.041-.092.074-.179.113-.27.033.966.031,1.809-.01,2.514a1.532,1.532,0,0,0,.691,1.519,3.08,3.08,0,0,0,1.691.483,3.443,3.443,0,0,0,1.726-.449,1.788,1.788,0,0,0,.932-1.346,14.791,14.791,0,0,1,.346-2.036q.274-1.207.621-2.313a16.518,16.518,0,0,1,.725-1.933q.379-.829.725-.967a4.967,4.967,0,0,1,.07,1.622,10.205,10.205,0,0,0,.207,2.623,5.564,5.564,0,0,0,1.139,2.416,3.471,3.471,0,0,0,2.865,1.07,3.563,3.563,0,0,0,2.416-1.208,16.21,16.21,0,0,0,2.278-2.8l.056-.09c.049.594.115,1.179.219,1.746a9.6,9.6,0,0,0,1.864,4.349,4.671,4.671,0,0,0,3.865,1.726,7.915,7.915,0,0,0,3.763-.9,12.059,12.059,0,0,0,3-2.244,14.83,14.83,0,0,0,2.244-2.968,31.1,31.1,0,0,0,1.587-3.141,23,23,0,0,0,1-2.727c.229-.8.39-1.346.483-1.622a1.206,1.206,0,0,0-.138-1A1.056,1.056,0,0,0,262.367,126.963Zm-10.631-3.348q.552-1.553,1.035-1.76.276-.137.518.414a5.06,5.06,0,0,1,.345,1.381,7.7,7.7,0,0,1,.035,1.622,2.618,2.618,0,0,1-.346,1.208,1.664,1.664,0,0,1-1.1.725,6.827,6.827,0,0,1-1.519.173A31.117,31.117,0,0,1,251.736,123.615Zm-69.2,8.629a21.786,21.786,0,0,1-.9,3.831,10.817,10.817,0,0,1-1.381,2.83q-.794,1.1-1.691.966t-1.346-1.381a10.732,10.732,0,0,1-.552-3,20.592,20.592,0,0,1,.138-3.727,18.56,18.56,0,0,1,.794-3.625,7.8,7.8,0,0,1,1.415-2.658,2.008,2.008,0,0,1,1.967-.794q.759.139,1.139,1.243a11.006,11.006,0,0,1,.518,2.278A15.965,15.965,0,0,1,182.534,132.244Z" transform="translate(-157.712 -112.805)" fill="#fff"/>
      <path id="Контур_20" data-name="Контур 20" d="M362.739,148.289a4.215,4.215,0,0,0-2.8.517,2.984,2.984,0,0,0-1.346,2.52,3.1,3.1,0,0,0,1,2.658,5.642,5.642,0,0,0,2.52,1.415,3.838,3.838,0,0,0,2.8-.38,2.834,2.834,0,0,0,1.484-2.451,3.434,3.434,0,0,0-.966-2.761A5.111,5.111,0,0,0,362.739,148.289Z" transform="translate(-252.769 -129.575)" fill="#fff"/>
      <path id="Контур_21" data-name="Контур 21" d="M397.117,129.13a1.792,1.792,0,0,0-1.07.38,1.249,1.249,0,0,0-.518,1.07q0,.76-.207,2.8t-.518,4.245a29.007,29.007,0,0,1-.794,3.9q-.484,1.693-1.1,1.691t-1.174-1.242a12.941,12.941,0,0,1-.862-3.106,27.331,27.331,0,0,1-.346-4.073,14.143,14.143,0,0,1,.518-4.142q.137-.621-.656-.863a4.322,4.322,0,0,0-1.829-.1,4.626,4.626,0,0,0-1.967.76,2.382,2.382,0,0,0-1.07,1.795,25.549,25.549,0,0,0,.207,8.215q-.553,1.933-1.1,3.313t-1.1,1.381q-.622,0-1.036-1.76a26.856,26.856,0,0,1-.587-4.245,42.776,42.776,0,0,1-.035-5.178,23.132,23.132,0,0,1,.622-4.556q.207-.621-.587-.9a3.954,3.954,0,0,0-1.829-.137,4.865,4.865,0,0,0-2,.759,2.353,2.353,0,0,0-1.1,1.795,39.863,39.863,0,0,0-.276,5.9,32.78,32.78,0,0,0,.622,5.9,12.839,12.839,0,0,0,1.726,4.487,3.408,3.408,0,0,0,3.106,1.726,4.474,4.474,0,0,0,2.83-1.381,12.1,12.1,0,0,0,2.209-3.175,6.067,6.067,0,0,0,1.829,2.036,3.723,3.723,0,0,0,2.52.587,3.784,3.784,0,0,0,2.623-1.208,9.9,9.9,0,0,0,1.864-2.8,20.1,20.1,0,0,0,1.243-3.658q.482-2,.76-3.8t.38-3.175q.1-1.38.172-1.795a1.13,1.13,0,0,0-.414-1.07A1.654,1.654,0,0,0,397.117,129.13Z" transform="translate(-261.33 -120.149)" fill="#fff"/>
      <path id="Контур_22" data-name="Контур 22" d="M426.711,121.027a7.333,7.333,0,0,0,1.726-.484,5.626,5.626,0,0,0,1.45-.863,3.443,3.443,0,0,0,.932-1.173,2.279,2.279,0,0,0,.172-1.415,2.636,2.636,0,0,0-1.795-2.105,7.163,7.163,0,0,0-6.8,1.1,2.64,2.64,0,0,0-.932,2.589,2.439,2.439,0,0,0,1.864,2A7.669,7.669,0,0,0,426.711,121.027Z" transform="translate(-282.503 -113.634)" fill="#fff"/>
      <path id="Контур_23" data-name="Контур 23" d="M467.973,132.626a1.054,1.054,0,0,0-.69-.448,1.47,1.47,0,0,0-.863.137,1.3,1.3,0,0,0-.655.829,13.355,13.355,0,0,1-.622,1.553q-.484,1.071-1.173,2.347t-1.588,2.658a17.554,17.554,0,0,1-1.864,2.416,8.487,8.487,0,0,1-2,1.622,2.4,2.4,0,0,1-1.933.311,1.751,1.751,0,0,1-1.07-.967,6.355,6.355,0,0,1-.553-1.864,13.885,13.885,0,0,1-.138-2.485,24.242,24.242,0,0,1,.242-2.83q.759-.068,1.76-.207a11.606,11.606,0,0,0,1.967-.449,9.029,9.029,0,0,0,1.795-.794,4.46,4.46,0,0,0,1.381-1.243,3.589,3.589,0,0,0,.587-2.485,8.874,8.874,0,0,0-.794-3.107,7.948,7.948,0,0,0-1.967-2.658,4.28,4.28,0,0,0-2.934-1.139,4.05,4.05,0,0,0-3.141,1.726,14.4,14.4,0,0,0-2.347,4.349,23.162,23.162,0,0,0-.9,3.344,15.556,15.556,0,0,1-.83,2.006,21.71,21.71,0,0,1-1.277,2.278,14.081,14.081,0,0,1-1.381,1.829q-.691.76-1.1.759c-.231,0-.391-.333-.483-1a17.21,17.21,0,0,1-.139-2.347,20.2,20.2,0,0,1,.173-2.658,11.19,11.19,0,0,1,.38-1.933,1.139,1.139,0,0,0-.208-1.381,2.268,2.268,0,0,0-1.45-.518,4.612,4.612,0,0,0-1.864.345,3.565,3.565,0,0,0-1.519,1.07,16.6,16.6,0,0,0-1.484,2.52,21.648,21.648,0,0,0-1.277,3.348,9.278,9.278,0,0,1,.035-1.76q.1-1.069.31-2.278t.449-2.416q.242-1.207.38-2.174a1.423,1.423,0,0,0-.622-1.519,2.841,2.841,0,0,0-1.76-.414,3.832,3.832,0,0,0-1.968.759,2.949,2.949,0,0,0-1.174,2.071,15.9,15.9,0,0,0-.276,3.106c0,.067,0,.136,0,.2l0,0a17.85,17.85,0,0,1-.621,2.209q-.484,1.45-1.036,2.9a20.407,20.407,0,0,1-1.139,2.52q-.587,1.071-1,1.07-.622,0-.794-1.243a16.937,16.937,0,0,1-.1-2.968q.068-1.724.311-3.589t.517-3.106a1.974,1.974,0,0,0-.552-1.864,3.058,3.058,0,0,0-1.795-.9,2.564,2.564,0,0,0-1.9.483,2.632,2.632,0,0,0-.863,2.278q0,2.21-.172,4.521a29.76,29.76,0,0,0-.035,4.28,8.5,8.5,0,0,0,.932,3.451,4.2,4.2,0,0,0,2.658,2.037,2.8,2.8,0,0,0,2.278-.277,6.789,6.789,0,0,0,1.9-1.76,13.11,13.11,0,0,0,1.519-2.623c.041-.091.074-.179.113-.269.033.966.031,1.808-.01,2.513a1.532,1.532,0,0,0,.69,1.519,3.08,3.08,0,0,0,1.691.483,3.442,3.442,0,0,0,1.726-.449,1.79,1.79,0,0,0,.932-1.346,14.856,14.856,0,0,1,.345-2.036q.275-1.207.621-2.313a16.332,16.332,0,0,1,.725-1.933q.378-.829.725-.967a4.967,4.967,0,0,1,.07,1.622,10.227,10.227,0,0,0,.207,2.623,5.576,5.576,0,0,0,1.139,2.416,3.472,3.472,0,0,0,2.865,1.07,3.565,3.565,0,0,0,2.416-1.208,16.234,16.234,0,0,0,2.278-2.8c.02-.03.037-.06.056-.09.048.594.115,1.179.219,1.746a9.6,9.6,0,0,0,1.865,4.349,4.671,4.671,0,0,0,3.865,1.726,7.915,7.915,0,0,0,3.763-.9,12.05,12.05,0,0,0,3-2.244,14.834,14.834,0,0,0,2.244-2.968,31.006,31.006,0,0,0,1.588-3.141,22.891,22.891,0,0,0,1-2.727c.23-.8.39-1.346.483-1.622A1.2,1.2,0,0,0,467.973,132.626Zm-11.321-3.8q.552-1.553,1.036-1.76.276-.137.518.414a5.06,5.06,0,0,1,.345,1.381,7.734,7.734,0,0,1,.035,1.622,2.626,2.626,0,0,1-.345,1.208,1.666,1.666,0,0,1-1.1.725,6.827,6.827,0,0,1-1.519.173A31.326,31.326,0,0,1,456.651,128.83Z" transform="translate(-283.796 -118.02)" fill="#fff"/>
    </g>
  </g>
</svg>
