<svg xmlns="http://www.w3.org/2000/svg" width="143.373" height="296.104" viewBox="0 0 143.373 296.104">
  <g id="Сгруппировать_73" data-name="Сгруппировать 73" transform="translate(-889.191 -2039.507)">
    <path id="Контур_28" data-name="Контур 28" d="M289.037,492.812V362.436c0-21.529,21.76-34.064,32.879-41.1,52.2-33.033,21.138-122.126,21.138-122.126H220.544S189.483,288.3,241.682,321.334c11.119,7.038,32.879,19.572,32.879,41.1V492.812" transform="translate(679.078 1841.549)" fill="none" stroke="#fff" stroke-linecap="round" stroke-linejoin="round" stroke-width="2.5"/>
    <g id="Сгруппировать_6" data-name="Сгруппировать 6" transform="translate(900.579 2080.674)" opacity="0.256">
      <path id="Контур_29" data-name="Контур 29" d="M276.8,299.981c-20.175,0-35.608-6.042-45.876-17.959-16.9-19.62-14.926-48.684-13.544-59.084a166.77,166.77,0,0,1,34.793-3.515c.673,0,1.351,0,2.034.01,31.114.33,51.745,6.72,71.694,12.9,3.839,1.189,7.488,2.32,11.206,3.408.071,12.412-2.154,33.886-16.488,48.518C310.4,294.691,295.655,299.981,276.8,299.981Z" transform="translate(-216.502 -219.423)" fill="#681b43"/>
    </g>
  </g>
</svg>
