<svg xmlns="http://www.w3.org/2000/svg" width="115.895" height="279.162" viewBox="0 0 115.895 279.162">
  <g id="Сгруппировать_72" data-name="Сгруппировать 72" transform="translate(-1534.887 -2034.75)">
    <path id="Контур_30" data-name="Контур 30" d="M713.56,458.946V367.938c0-12.753,16.424-23.782,34.089-41.447,18.472-18.47,17.32-39.7,15.363-53.464-3.255-22.888-17.815-90.742-17.815-90.742H669.442s-14.561,67.854-17.814,90.742c-1.959,13.769-3.109,34.994,15.361,53.464,18.621,18.621,34.09,28.694,34.09,41.447v91.009" transform="translate(885.516 1853.716)" fill="none" stroke="#fff" stroke-linecap="round" stroke-linejoin="round" stroke-width="2.5"/>
    <path id="Контур_31" data-name="Контур 31" d="M703.188,319.849c-16.761-1.838-29.215-7.865-37.022-17.916-11.1-14.288-9.841-32.9-8.784-40.246,2.041-14.191,9.648-48.447,11.421-56.366a99.917,99.917,0,0,0,20.73,2.258h0a61.809,61.809,0,0,0,20.963-3.26,36.84,36.84,0,0,1,12.585-2.121,45.347,45.347,0,0,1,14.316,2.359c1.378,6.134,9.476,42.416,11.592,57.129,1.057,7.34,2.316,25.957-8.781,40.245C732.4,311.984,719.948,318.011,703.188,319.849Z" transform="translate(889.648 1867.143)" fill="#681b43" opacity="0.343"/>
  </g>
</svg>
