<svg xmlns="http://www.w3.org/2000/svg" width="76.114" height="154.874" viewBox="0 0 76.114 154.874">
  <g id="Сгруппировать_71" data-name="Сгруппировать 71" transform="translate(-922.019 -222.376)">
    <path id="Контур_25" data-name="Контур 25" d="M474.225,361.566V323.661c0-25.779,17.493-27.737,28.015-46.647,10.459-18.8,0-67.822,0-67.822H437.959s-10.46,49.026,0,67.822c10.523,18.909,28.015,20.867,28.015,46.647v37.906" transform="translate(489.977 14.434)" fill="none" stroke="#fff" stroke-linecap="round" stroke-linejoin="round" stroke-width="2.5"/>
    <g id="Сгруппировать_4" data-name="Сгруппировать 4" transform="translate(929.168 254.227)" opacity="0.355">
      <path id="Контур_26" data-name="Контур 26" d="M469.566,288.479a16.95,16.95,0,0,1-5.268-.839,66.921,66.921,0,0,1-6.677-2.446c-19.789-9.446-19.7-36.1-18.551-48.182,24.906.036,44.247,3.837,61.414,8,.134,14.341-3.126,32.619-18.974,40.183a66.464,66.464,0,0,1-6.676,2.446A16.95,16.95,0,0,1,469.566,288.479Z" transform="translate(-438.657 -237.011)" fill="#681b43"/>
    </g>
  </g>
</svg>
