<svg xmlns="http://www.w3.org/2000/svg" width="136.402" height="279.652" viewBox="0 0 136.402 279.652">
  <g id="Сгруппировать_72" data-name="Сгруппировать 72" transform="translate(-274.016 -2044.224)">
    <path id="Контур_25" data-name="Контур 25" d="M507.731,486.344V417.4c0-46.889,31.817-50.451,50.957-84.845,19.024-34.188,0-123.361,0-123.361H441.766s-19.026,89.173,0,123.361c19.14,34.394,50.957,37.956,50.957,84.845v68.946" transform="translate(-158.009 1836.282)" fill="none" stroke="#fff" stroke-linecap="round" stroke-linejoin="round" stroke-width="2.5"/>
    <g id="Сгруппировать_4" data-name="Сгруппировать 4" transform="translate(285.999 2101.135)" opacity="0.355">
      <path id="Контур_26" data-name="Контур 26" d="M494.876,330.625a30.829,30.829,0,0,1-9.582-1.527,121.745,121.745,0,0,1-12.145-4.45c-35.995-17.181-35.837-65.671-33.742-87.638,45.3.066,80.481,6.979,111.706,14.55.244,26.085-5.686,59.33-34.512,73.088a120.916,120.916,0,0,1-12.143,4.45A30.829,30.829,0,0,1,494.876,330.625Z" transform="translate(-438.657 -237.011)" fill="#681b43"/>
    </g>
  </g>
</svg>
