<svg xmlns="http://www.w3.org/2000/svg" width="173" height="117" viewBox="0 0 173 117">
  <g id="gift-card" transform="translate(2.5 -82.833)">
    <path id="Контур_34" data-name="Контур 34" d="M17.5,85.333h133a17.5,17.5,0,0,1,17.5,17.5v77a17.5,17.5,0,0,1-17.5,17.5H17.5A17.5,17.5,0,0,1,0,179.833v-77A17.5,17.5,0,0,1,17.5,85.333Z" fill="none" stroke="#fff" stroke-width="5"/>
    <g id="Сгруппировать_11" data-name="Сгруппировать 11" transform="translate(21 155.333)">
      <path id="Контур_35" data-name="Контур 35" d="M95.5,305.666h-28a3.5,3.5,0,1,1,0-7h28a3.5,3.5,0,0,1,0,7Z" transform="translate(-64 -298.666)" fill="#fff"/>
      <path id="Контур_36" data-name="Контур 36" d="M116.5,348.333h-49a3.5,3.5,0,1,1,0-7h49a3.5,3.5,0,1,1,0,7Z" transform="translate(-64 -327.333)" fill="#fff"/>
    </g>
    <g id="Сгруппировать_12" data-name="Сгруппировать 12" transform="translate(0 85.333)">
      <path id="Контур_37" data-name="Контур 37" d="M232.96,172.466a38.731,38.731,0,0,1-36.9-27.51,10.451,10.451,0,0,1,12.894-12.894,38.724,38.724,0,0,1,27.51,36.9A3.5,3.5,0,0,1,232.96,172.466Zm-26.9-33.831a3.5,3.5,0,0,0-2.387,1.036,3.289,3.289,0,0,0-.91,3.283h0a31.7,31.7,0,0,0,26.467,22.281,31.7,31.7,0,0,0-22.281-26.467A3.067,3.067,0,0,0,206.059,138.635Z" transform="translate(-131.46 -116.466)" fill="#fff"/>
      <path id="Контур_38" data-name="Контур 38" d="M302.166,172.461a3.5,3.5,0,0,1-3.5-3.5,38.731,38.731,0,0,1,27.51-36.9A10.451,10.451,0,0,1,339.07,144.95h0A38.73,38.73,0,0,1,302.166,172.461Zm26.9-33.831a3.188,3.188,0,0,0-.9.133,31.717,31.717,0,0,0-22.281,26.474,31.7,31.7,0,0,0,26.467-22.281h0a3.29,3.29,0,0,0-.91-3.283A3.5,3.5,0,0,0,329.067,138.629Z" transform="translate(-200.666 -116.46)" fill="#fff"/>
      <rect id="Прямоугольник_42" data-name="Прямоугольник 42" width="7" height="112" transform="translate(98.001)" fill="#fff"/>
      <path id="Контур_39" data-name="Контур 39" d="M238.153,262.748a3.5,3.5,0,0,1-2.478-5.978l21-21a3.5,3.5,0,0,1,4.949,4.949l-21,21A3.5,3.5,0,0,1,238.153,262.748Z" transform="translate(-157.653 -185.747)" fill="#fff"/>
      <path id="Контур_40" data-name="Контур 40" d="M323.248,262.762a3.5,3.5,0,0,1-2.478-1.022l-21-21a3.5,3.5,0,0,1,4.949-4.949l21,21a3.5,3.5,0,0,1-2.471,5.971Z" transform="translate(-200.747 -185.761)" fill="#fff"/>
      <rect id="Прямоугольник_43" data-name="Прямоугольник 43" width="168.001" height="7" transform="translate(0 49)" fill="#fff"/>
    </g>
  </g>
</svg>
