<svg xmlns="http://www.w3.org/2000/svg" width="169.702" height="135.764" viewBox="0 0 169.702 135.764">
  <g id="facebook" transform="translate(-106.005)">
    <g id="Сгруппировать_15" data-name="Сгруппировать 15" transform="translate(106.005 0)">
      <path id="Контур_48" data-name="Контур 48" d="M144.5,116.759H123.869a5.259,5.259,0,0,1-5.253-5.253V94.42a3.753,3.753,0,1,1,7.505,0v14.835h16.128V70.829A4.758,4.758,0,0,1,147,66.076h7.858V49.947H147a4.758,4.758,0,0,1-4.753-4.753V39.928a16.313,16.313,0,0,1,16.3-16.3H162.1V7.5h-3.555a32.46,32.46,0,0,0-32.424,32.424v5.265a4.758,4.758,0,0,1-4.753,4.753H113.51V66.075h7.858a4.758,4.758,0,0,1,4.753,4.753v4.7a3.753,3.753,0,1,1-7.505,0V73.58h-7.357A5.259,5.259,0,0,1,106,68.326V47.7a5.259,5.259,0,0,1,5.253-5.253h7.357V39.929A39.974,39.974,0,0,1,158.544,0h5.807A5.259,5.259,0,0,1,169.6,5.253V25.884a5.259,5.259,0,0,1-5.253,5.253h-5.807a8.8,8.8,0,0,0-8.79,8.79v2.514h7.357a5.259,5.259,0,0,1,5.253,5.253V68.326a5.259,5.259,0,0,1-5.253,5.253h-7.357V111.5a5.26,5.26,0,0,1-5.253,5.255Z" transform="translate(-106.005 0)" fill="#fff"/>
    </g>
    <g id="Сгруппировать_16" data-name="Сгруппировать 16" transform="translate(176.549 36.605)">
      <path id="Контур_49" data-name="Контур 49" d="M325.3,172.387H268.117a21.014,21.014,0,0,1-20.99-20.99V94.219a21.015,21.015,0,0,1,20.99-20.991h6.275a3.753,3.753,0,0,1,0,7.505h-6.275a13.5,13.5,0,0,0-13.486,13.486V151.4a13.5,13.5,0,0,0,13.486,13.485H325.3A13.5,13.5,0,0,0,338.781,151.4V94.219A13.5,13.5,0,0,0,325.3,80.733H293.331a3.753,3.753,0,0,1,0-7.505H325.3a21.014,21.014,0,0,1,20.99,20.991V151.4A21.013,21.013,0,0,1,325.3,172.387Z" transform="translate(-247.127 -73.228)" fill="#fff"/>
    </g>
    <g id="Сгруппировать_17" data-name="Сгруппировать 17" transform="translate(204.166 64.222)">
      <path id="Контур_50" data-name="Контур 50" d="M324.337,172.4A21.962,21.962,0,1,1,346.3,150.438,21.987,21.987,0,0,1,324.337,172.4Zm0-36.419a14.457,14.457,0,1,0,14.457,14.457A14.473,14.473,0,0,0,324.337,135.981Z" transform="translate(-302.375 -128.476)" fill="#fff"/>
    </g>
    <g id="Сгруппировать_18" data-name="Сгруппировать 18" transform="translate(246.579 55.127)">
      <circle id="Эллипс_20" data-name="Эллипс 20" cx="5.304" cy="5.304" r="5.304" fill="#fff"/>
    </g>
  </g>
</svg>
