<svg xmlns="http://www.w3.org/2000/svg" width="166.482" height="127.946" viewBox="0 0 166.482 127.946">
  <g id="profits" transform="translate(-13.162)">
    <g id="Сгруппировать_31" data-name="Сгруппировать 31" transform="translate(13.162)">
      <g id="Сгруппировать_30" data-name="Сгруппировать 30">
        <path id="Контур_57" data-name="Контур 57" d="M178.405,1.154A4.73,4.73,0,0,0,175.329,0H146.064a4.272,4.272,0,1,0,0,8.545L164.948,8.5,118.764,54.728,102.572,38.451a4.136,4.136,0,0,0-6.067,0L14.477,120.565a4.291,4.291,0,1,0,5.939,6.195c.043-.043.085-.085.128-.085L99.581,47.636l16.192,16.149a4.373,4.373,0,0,0,3.033,1.2,4.45,4.45,0,0,0,3.033-1.2L171.1,14.526l-.043,18.841a4.212,4.212,0,0,0,4.23,4.23h.043a4.212,4.212,0,0,0,4.272-4.187v-.043l.043-29.223A4.387,4.387,0,0,0,178.405,1.154Z" transform="translate(-13.162 0)" fill="#fff"/>
      </g>
    </g>
  </g>
</svg>
